<mxfile host="app.diagrams.net" modified="2020-09-24T19:37:14.237Z" agent="5.0 (Windows NT 10.0; Win64; x64) AppleWebKit/537.36 (KHTML, like Gecko) Chrome/85.0.4183.102 Safari/537.36 Edg/85.0.564.51" etag="BImiNs8HKh0v72caYCbw" version="13.7.5" type="github">
  <diagram id="_6fXyQC-6P97kaKCTOUd" name="Page-1">
    <mxGraphModel dx="1015" dy="563" grid="1" gridSize="10" guides="1" tooltips="1" connect="1" arrows="1" fold="1" page="1" pageScale="1" pageWidth="827" pageHeight="1169" math="0" shadow="0">
      <root>
        <mxCell id="0" />
        <mxCell id="1" parent="0" />
        <mxCell id="dzLMPXvxp-8YID3QSZYI-5" style="edgeStyle=orthogonalEdgeStyle;rounded=0;orthogonalLoop=1;jettySize=auto;html=1;entryX=0.538;entryY=0.018;entryDx=0;entryDy=0;entryPerimeter=0;" parent="1" source="JGZQc_ETVHEaCk4bgyom-1" target="dzLMPXvxp-8YID3QSZYI-3" edge="1">
          <mxGeometry relative="1" as="geometry" />
        </mxCell>
        <mxCell id="JGZQc_ETVHEaCk4bgyom-1" value="INICIO" style="ellipse;whiteSpace=wrap;html=1;" parent="1" vertex="1">
          <mxGeometry x="150" y="20" width="120" height="80" as="geometry" />
        </mxCell>
        <mxCell id="dzLMPXvxp-8YID3QSZYI-8" style="edgeStyle=orthogonalEdgeStyle;rounded=0;orthogonalLoop=1;jettySize=auto;html=1;entryX=0.494;entryY=0.193;entryDx=0;entryDy=0;entryPerimeter=0;" parent="1" source="dzLMPXvxp-8YID3QSZYI-3" target="dzLMPXvxp-8YID3QSZYI-7" edge="1">
          <mxGeometry relative="1" as="geometry" />
        </mxCell>
        <mxCell id="dzLMPXvxp-8YID3QSZYI-3" value="r_requivalente,e_tensao_fonte,a_corrente_sistema e_resist1,e_resist2, s_vr1, s_vr2,s_ar1,s_ar2" style="shape=internalStorage;whiteSpace=wrap;html=1;backgroundOutline=1;" parent="1" vertex="1">
          <mxGeometry x="30" y="150" width="330" height="90" as="geometry" />
        </mxCell>
        <mxCell id="dzLMPXvxp-8YID3QSZYI-12" style="edgeStyle=orthogonalEdgeStyle;rounded=0;orthogonalLoop=1;jettySize=auto;html=1;entryX=0.512;entryY=0.233;entryDx=0;entryDy=0;entryPerimeter=0;" parent="1" source="dzLMPXvxp-8YID3QSZYI-6" target="dzLMPXvxp-8YID3QSZYI-10" edge="1">
          <mxGeometry relative="1" as="geometry" />
        </mxCell>
        <mxCell id="dzLMPXvxp-8YID3QSZYI-6" value="e_resisit1" style="html=1;strokeWidth=2;shape=manualInput;whiteSpace=wrap;rounded=1;size=26;arcSize=11;" parent="1" vertex="1">
          <mxGeometry x="140" y="370" width="100" height="60" as="geometry" />
        </mxCell>
        <mxCell id="dzLMPXvxp-8YID3QSZYI-9" style="edgeStyle=orthogonalEdgeStyle;rounded=0;orthogonalLoop=1;jettySize=auto;html=1;entryX=0.534;entryY=0.18;entryDx=0;entryDy=0;entryPerimeter=0;" parent="1" source="dzLMPXvxp-8YID3QSZYI-7" target="dzLMPXvxp-8YID3QSZYI-6" edge="1">
          <mxGeometry relative="1" as="geometry" />
        </mxCell>
        <mxCell id="dzLMPXvxp-8YID3QSZYI-7" value="e_tensao" style="html=1;strokeWidth=2;shape=manualInput;whiteSpace=wrap;rounded=1;size=26;arcSize=11;" parent="1" vertex="1">
          <mxGeometry x="145" y="280" width="100" height="60" as="geometry" />
        </mxCell>
        <mxCell id="dzLMPXvxp-8YID3QSZYI-15" style="edgeStyle=orthogonalEdgeStyle;rounded=0;orthogonalLoop=1;jettySize=auto;html=1;entryX=0.469;entryY=0;entryDx=0;entryDy=0;entryPerimeter=0;" parent="1" source="dzLMPXvxp-8YID3QSZYI-10" target="dzLMPXvxp-8YID3QSZYI-13" edge="1">
          <mxGeometry relative="1" as="geometry" />
        </mxCell>
        <mxCell id="dzLMPXvxp-8YID3QSZYI-10" value="e_resist2" style="html=1;strokeWidth=2;shape=manualInput;whiteSpace=wrap;rounded=1;size=26;arcSize=11;" parent="1" vertex="1">
          <mxGeometry x="140" y="470" width="100" height="60" as="geometry" />
        </mxCell>
        <mxCell id="dzLMPXvxp-8YID3QSZYI-40" style="edgeStyle=orthogonalEdgeStyle;rounded=0;orthogonalLoop=1;jettySize=auto;html=1;entryX=0.297;entryY=0.198;entryDx=0;entryDy=0;entryPerimeter=0;" parent="1" source="dzLMPXvxp-8YID3QSZYI-13" target="dzLMPXvxp-8YID3QSZYI-28" edge="1">
          <mxGeometry relative="1" as="geometry">
            <Array as="points">
              <mxPoint x="464" y="610" />
            </Array>
          </mxGeometry>
        </mxCell>
        <mxCell id="dzLMPXvxp-8YID3QSZYI-13" value="e_requivalente= e_resist1 + e_resist2" style="rounded=1;whiteSpace=wrap;html=1;" parent="1" vertex="1">
          <mxGeometry x="115" y="575" width="160" height="70" as="geometry" />
        </mxCell>
        <mxCell id="dzLMPXvxp-8YID3QSZYI-21" style="edgeStyle=orthogonalEdgeStyle;rounded=0;orthogonalLoop=1;jettySize=auto;html=1;entryX=0.5;entryY=0;entryDx=0;entryDy=0;" parent="1" source="dzLMPXvxp-8YID3QSZYI-16" target="dzLMPXvxp-8YID3QSZYI-20" edge="1">
          <mxGeometry relative="1" as="geometry" />
        </mxCell>
        <mxCell id="dzLMPXvxp-8YID3QSZYI-16" value="e_tensao_fonte =a_corrente_sistema* e_requivalente" style="rounded=1;whiteSpace=wrap;html=1;" parent="1" vertex="1">
          <mxGeometry x="117.5" y="720" width="215" height="60" as="geometry" />
        </mxCell>
        <mxCell id="dzLMPXvxp-8YID3QSZYI-22" style="edgeStyle=orthogonalEdgeStyle;rounded=0;orthogonalLoop=1;jettySize=auto;html=1;entryX=0.5;entryY=0;entryDx=0;entryDy=0;" parent="1" source="dzLMPXvxp-8YID3QSZYI-20" edge="1" target="dzLMPXvxp-8YID3QSZYI-23">
          <mxGeometry relative="1" as="geometry">
            <mxPoint x="225" y="830" as="targetPoint" />
          </mxGeometry>
        </mxCell>
        <mxCell id="dzLMPXvxp-8YID3QSZYI-20" value="s_vr1=a_corrente_sistema*e_resist1" style="rounded=1;whiteSpace=wrap;html=1;" parent="1" vertex="1">
          <mxGeometry x="117.5" y="860" width="215" height="60" as="geometry" />
        </mxCell>
        <mxCell id="hVp7x8Ihq9BXh0ouCUGb-6" style="edgeStyle=orthogonalEdgeStyle;rounded=0;orthogonalLoop=1;jettySize=auto;html=1;entryX=0.47;entryY=-0.039;entryDx=0;entryDy=0;entryPerimeter=0;" edge="1" parent="1" source="dzLMPXvxp-8YID3QSZYI-23" target="dzLMPXvxp-8YID3QSZYI-25">
          <mxGeometry relative="1" as="geometry" />
        </mxCell>
        <mxCell id="dzLMPXvxp-8YID3QSZYI-23" value="s_ar1= s_vr1/e_resist1" style="rounded=1;whiteSpace=wrap;html=1;" parent="1" vertex="1">
          <mxGeometry x="145" y="990" width="160" height="60" as="geometry" />
        </mxCell>
        <mxCell id="hVp7x8Ihq9BXh0ouCUGb-7" style="edgeStyle=orthogonalEdgeStyle;rounded=0;orthogonalLoop=1;jettySize=auto;html=1;entryX=0.5;entryY=0;entryDx=0;entryDy=0;" edge="1" parent="1" source="dzLMPXvxp-8YID3QSZYI-25" target="dzLMPXvxp-8YID3QSZYI-27">
          <mxGeometry relative="1" as="geometry" />
        </mxCell>
        <mxCell id="dzLMPXvxp-8YID3QSZYI-25" value="s_vr2=a_corrente_sistema*e_resist2" style="rounded=1;whiteSpace=wrap;html=1;" parent="1" vertex="1">
          <mxGeometry x="122.5" y="1090" width="220" height="60" as="geometry" />
        </mxCell>
        <mxCell id="hVp7x8Ihq9BXh0ouCUGb-8" style="edgeStyle=orthogonalEdgeStyle;rounded=0;orthogonalLoop=1;jettySize=auto;html=1;entryX=0.5;entryY=0;entryDx=0;entryDy=0;" edge="1" parent="1" source="dzLMPXvxp-8YID3QSZYI-27" target="hVp7x8Ihq9BXh0ouCUGb-2">
          <mxGeometry relative="1" as="geometry" />
        </mxCell>
        <mxCell id="dzLMPXvxp-8YID3QSZYI-27" value="s_ar2=s_vr2/e_resist2" style="rounded=1;whiteSpace=wrap;html=1;" parent="1" vertex="1">
          <mxGeometry x="127.5" y="1190" width="210" height="60" as="geometry" />
        </mxCell>
        <mxCell id="dzLMPXvxp-8YID3QSZYI-36" style="edgeStyle=orthogonalEdgeStyle;rounded=0;orthogonalLoop=1;jettySize=auto;html=1;entryX=1;entryY=0.5;entryDx=0;entryDy=0;" parent="1" source="dzLMPXvxp-8YID3QSZYI-28" target="dzLMPXvxp-8YID3QSZYI-16" edge="1">
          <mxGeometry relative="1" as="geometry" />
        </mxCell>
        <mxCell id="hVp7x8Ihq9BXh0ouCUGb-11" style="edgeStyle=orthogonalEdgeStyle;rounded=0;orthogonalLoop=1;jettySize=auto;html=1;" edge="1" parent="1" source="dzLMPXvxp-8YID3QSZYI-28">
          <mxGeometry relative="1" as="geometry">
            <mxPoint x="620" y="780" as="targetPoint" />
          </mxGeometry>
        </mxCell>
        <mxCell id="dzLMPXvxp-8YID3QSZYI-28" value="e_requivalente&amp;gt;0" style="rhombus;whiteSpace=wrap;html=1;" parent="1" vertex="1">
          <mxGeometry x="424" y="610" width="136" height="100" as="geometry" />
        </mxCell>
        <mxCell id="dzLMPXvxp-8YID3QSZYI-35" value="SIM" style="text;html=1;align=center;verticalAlign=middle;resizable=0;points=[];autosize=1;" parent="1" vertex="1">
          <mxGeometry x="320" y="570" width="40" height="20" as="geometry" />
        </mxCell>
        <mxCell id="dzLMPXvxp-8YID3QSZYI-37" value="NÃO" style="text;html=1;align=center;verticalAlign=middle;resizable=0;points=[];autosize=1;" parent="1" vertex="1">
          <mxGeometry x="580" y="625" width="40" height="20" as="geometry" />
        </mxCell>
        <mxCell id="dzLMPXvxp-8YID3QSZYI-43" value="FIM" style="ellipse;whiteSpace=wrap;html=1;" parent="1" vertex="1">
          <mxGeometry x="172.5" y="1480" width="120" height="80" as="geometry" />
        </mxCell>
        <mxCell id="hVp7x8Ihq9BXh0ouCUGb-9" style="edgeStyle=orthogonalEdgeStyle;rounded=0;orthogonalLoop=1;jettySize=auto;html=1;" edge="1" parent="1" source="hVp7x8Ihq9BXh0ouCUGb-2" target="dzLMPXvxp-8YID3QSZYI-43">
          <mxGeometry relative="1" as="geometry" />
        </mxCell>
        <mxCell id="hVp7x8Ihq9BXh0ouCUGb-2" value="&lt;font&gt;&lt;/font&gt;&lt;br&gt;&lt;br&gt;&lt;font&gt;&lt;br&gt; &lt;/font&gt;&lt;font&gt; s_vr1 a_ar2 s_vr1 s_vr1 s_ar2 &lt;/font&gt;&lt;font&gt;&lt;br&gt;&lt;/font&gt;" style="shape=document;whiteSpace=wrap;html=1;boundedLbl=1;" vertex="1" parent="1">
          <mxGeometry x="170" y="1300" width="125" height="110" as="geometry" />
        </mxCell>
        <mxCell id="hVp7x8Ihq9BXh0ouCUGb-10" value="&lt;font&gt;&lt;font&gt;&lt;font&gt;Req não&lt;br&gt;pode ser zero&lt;br&gt;&lt;/font&gt;&lt;font&gt;Erro&lt;/font&gt;&lt;/font&gt;&lt;br&gt;&lt;/font&gt;" style="shape=document;whiteSpace=wrap;html=1;boundedLbl=1;" vertex="1" parent="1">
          <mxGeometry x="550" y="780" width="120" height="80" as="geometry" />
        </mxCell>
      </root>
    </mxGraphModel>
  </diagram>
</mxfile>
